# Blender 3.1.0
# www.blender.org
mtllib Tumbochka.mtl
o Куб.002
v -1.300000 3.705669 1.500000
v -1.300000 3.905668 1.500000
v -1.300000 3.705669 -1.500000
v -1.300000 3.905668 -1.500000
v 1.300000 3.705669 1.500000
v 1.300000 3.905668 1.500000
v 1.300000 3.705669 -1.500000
v 1.300000 3.905668 -1.500000
v -1.300000 -0.100000 1.500000
v -1.300000 0.100000 1.500000
v -1.300000 -0.100000 -1.500000
v -1.300000 0.100000 -1.500000
v 1.300000 -0.100000 1.500000
v 1.300000 0.100000 1.500000
v 1.300000 -0.100000 -1.500000
v 1.300000 0.100000 -1.500000
v -1.214599 -0.100000 -1.500000
v -1.214599 0.100000 -1.500000
v -1.214599 -0.100000 1.500000
v -1.214599 0.100000 1.500000
v 1.209854 0.100000 -1.500000
v 1.209854 -0.100000 1.500000
v 1.209854 -0.100000 -1.500000
v 1.209854 0.100000 1.500000
v -1.300000 -0.100000 -1.373418
v -1.300000 0.100000 -1.373418
v 1.300000 -0.100000 -1.373418
v 1.300000 0.100000 -1.373418
v -1.214599 0.100000 -1.373418
v -1.214599 -0.100000 -1.373418
v 1.209854 0.100000 -1.373418
v 1.209854 -0.100000 -1.373418
v -1.300000 -0.100000 1.381734
v 1.300000 0.100000 1.381734
v -1.214599 0.100000 1.381734
v -1.214599 -0.100000 1.381734
v 1.209854 0.100000 1.381734
v 1.209854 -0.100000 1.381734
v -1.300000 0.100000 1.381734
v 1.300000 -0.100000 1.381734
v 1.188278 0.038137 1.463730
v 0.000922 -0.100000 -1.500000
v 0.000922 0.100000 1.500000
v 0.000922 0.100000 -1.500000
v 0.000922 -0.100000 1.500000
v 0.000922 -0.100000 -1.373418
v 0.000922 0.100000 -1.373418
v 0.000922 -0.100000 1.381734
v 0.000922 0.100000 1.381734
v -1.300000 2.914077 1.500000
v -1.300000 2.914077 -1.500000
v 1.300000 2.914077 1.500000
v 1.300000 2.914077 -1.500000
v -1.214599 2.914077 -1.500000
v -1.214599 2.914077 1.500000
v 1.209854 2.914077 -1.500000
v 1.209854 2.914077 1.500000
v -1.300000 2.914077 -1.373418
v 1.300000 2.914077 -1.373418
v -1.214599 2.914077 -1.373418
v 1.209854 2.914077 -1.373418
v 1.300000 2.914077 1.381734
v -1.214599 2.914077 1.381734
v 1.209854 2.914077 1.381734
v -1.300000 2.914077 1.381734
v 0.000922 2.914077 -1.500000
v 0.000922 2.914077 -1.373418
v -1.300000 2.910000 1.500000
v -1.300000 3.110000 1.500000
v -1.300000 2.910000 -1.500000
v -1.300000 3.110000 -1.500000
v 1.300000 2.910000 1.500000
v 1.300000 3.110000 1.500000
v 1.300000 2.910000 -1.500000
v 1.300000 3.110000 -1.500000
v -1.215186 2.910000 -1.500000
v -1.215186 3.110000 -1.500000
v -1.215186 2.910000 1.500000
v -1.215186 3.110000 1.500000
v 1.203567 3.110000 -1.500000
v 1.203567 2.910000 1.500000
v 1.203567 2.910000 -1.500000
v 1.203567 3.110000 1.500000
v -1.300000 2.910000 -1.404255
v -1.300000 3.110000 -1.404255
v 1.300000 2.910000 -1.404255
v 1.300000 3.110000 -1.404255
v -1.215186 3.110000 -1.404255
v -1.215186 2.910000 -1.404255
v 1.203567 3.110000 -1.404255
v 1.203567 2.910000 -1.404255
v -1.300000 2.910000 1.404105
v 1.300000 3.110000 1.404105
v -1.215186 3.110000 1.404105
v -1.215186 2.910000 1.404105
v 1.203567 3.110000 1.404105
v 1.203567 2.910000 1.404105
v -1.300000 3.110000 1.404105
v 1.300000 2.910000 1.404105
v -0.001246 2.910000 -1.500000
v -0.001246 3.110000 1.500000
v -0.001246 3.110000 -1.500000
v -0.001246 2.910000 1.500000
v -0.001246 2.910000 -1.404255
v -0.001246 3.110000 -1.404255
v -0.001246 2.910000 1.404105
v -0.001246 3.110000 1.404105
v -1.300000 3.710000 1.500000
v -1.300000 3.710000 -1.500000
v 1.300000 3.710000 1.500000
v 1.300000 3.710000 -1.500000
v -1.215186 3.710000 -1.500000
v -1.215186 3.710000 1.500000
v 1.203567 3.710000 -1.500000
v 1.203567 3.710000 1.500000
v -1.300000 3.710000 -1.404255
v 1.300000 3.710000 -1.404255
v -1.215186 3.710000 -1.404255
v 1.203567 3.710000 -1.404255
v 1.300000 3.710000 1.404105
v -1.215186 3.710000 1.404105
v 1.203567 3.710000 1.404105
v -1.300000 3.710000 1.404105
v -0.001246 3.710000 -1.500000
v -0.001246 3.710000 -1.404255
vn -1.3000 -0.0000 -0.0000
vn -0.0000 -0.0000 -1.5000
vn 1.3000 -0.0000 -0.0000
vn -0.0000 -0.0000 1.5000
vn -0.0000 -0.1000 -0.0000
vn -0.0000 0.1000 -0.0000
vn -0.9192 -0.0707 -0.0000
vn -0.9192 -0.0000 -1.0607
vn -0.7506 -0.0577 -0.8660
vn -0.0000 -0.0707 -1.0607
vn 0.9192 -0.0000 -1.0607
vn 0.7506 -0.0577 -0.8660
vn 0.9192 -0.0707 -0.0000
vn 0.9192 -0.0000 1.0607
vn 0.7506 -0.0577 0.8660
vn -0.0000 -0.0707 1.0607
vn 0.3920 0.0302 1.3568
vn -0.9192 -0.0000 1.0607
vn -0.7506 -0.0577 0.8660
vn -0.0000 0.0707 -1.0607
vn 0.7506 0.0577 -0.8660
vn 0.9192 0.0707 -0.0000
vn -0.0000 0.0707 1.0607
vn -0.3920 0.0302 1.3568
vn 0.7506 0.0577 0.8660
vn -0.7506 0.0577 0.8660
vn -0.9192 0.0707 -0.0000
vn -0.3920 0.0905 0.4523
vn -0.7506 0.0577 -0.8660
vn 0.3920 0.0905 0.4523
vt 0.501594 0.117965
vt 0.500026 0.516097
vt 0.476692 0.398132
vt 0.478260 0.117965
vt 0.476692 0.516097
vt 0.401802 0.648807
vt 0.501594 0.000000
vt 0.523361 0.516097
vt 0.500026 0.398132
vt 0.478260 0.000000
vt 0.500026 0.516097
vt 0.425136 0.648807
vt 0.501594 0.235930
vt 0.500026 0.634062
vt 0.476692 0.516097
vt 0.478260 0.235930
vt 0.476692 0.634062
vt 0.401802 0.530842
vt 0.523361 0.398132
vt 0.501594 0.353895
vt 0.500026 0.516097
vt 0.500026 0.398132
vt 0.478260 0.353895
vt 0.425136 0.530842
vt 0.112532 0.000000
vt 0.355132 0.530842
vt 0.236983 0.000000
vt 0.112532 0.066357
vt 0.236983 0.066357
vt 0.195499 0.000000
vt 0.112532 0.000000
vt 0.378467 0.530842
vt 0.195499 0.066357
vt 0.112532 0.066357
vt 0.355132 0.648807
vt 0.154015 0.000000
vt 0.154015 0.066357
vt 0.071048 0.000000
vt 0.378467 0.648807
vt 0.195499 0.000000
vt 0.071048 0.066357
vt 0.195499 0.066357
vt 0.378467 0.534717
vt 0.111169 0.000000
vt 0.111169 0.066357
vt 0.113894 0.000000
vt 0.355132 0.534717
vt 0.501594 0.110000
vt 0.113894 0.066357
vt 0.236983 0.000000
vt 0.072486 0.066357
vt 0.355132 0.644717
vt 0.152577 0.000000
vt 0.072486 0.000000
vt 0.378467 0.644717
vt 0.316450 0.000000
vt 0.501594 0.000000
vt 0.152577 0.066357
vt 0.197250 0.000000
vt 0.377482 0.530842
vt 0.197250 0.066357
vt 0.377482 0.648807
vt 0.193749 0.000000
vt 0.193749 0.066357
vt 0.523944 0.110000
vt 0.276716 0.000000
vt 0.316450 0.000000
vt 0.377482 0.534717
vt 0.276716 0.000000
vt 0.355132 0.000000
vt 0.523944 0.000000
vt 0.377482 0.644717
vt 0.235348 0.000000
vt 0.356052 0.530842
vt 0.155651 0.066357
vt 0.502514 0.110000
vt 0.238618 0.000000
vt 0.356052 0.534717
vt 0.314814 0.000000
vt 0.502514 0.000000
vt 0.356052 0.644717
vt 0.235348 0.066357
vt 0.356052 0.648807
vt 0.155651 0.000000
vt 0.378467 0.589867
vt 0.091775 0.000000
vt 0.133288 0.066357
vt 0.501594 0.054851
vt 0.091775 0.066357
vt 0.355132 0.589867
vt 0.133288 0.000000
vt 0.377482 0.589867
vt 0.523944 0.054851
vt 0.335844 0.000000
vt 0.356052 0.589867
vt 0.502514 0.054851
vt 0.112532 1.000000
vt 0.378467 0.648807
vt 0.236983 1.000000
vt 0.195499 1.000000
vt 0.401802 0.648807
vt 0.112532 1.000000
vt 0.378467 0.530842
vt 0.154015 1.000000
vt 0.071048 1.000000
vt 0.401802 0.530842
vt 0.195499 1.000000
vt 0.401802 0.644932
vt 0.111169 1.000000
vt 0.113894 1.000000
vt 0.378467 0.644932
vt 0.236983 0.933643
vt 0.401802 0.534932
vt 0.072486 1.000000
vt 0.316450 0.933643
vt 0.378467 0.534932
vt 0.152577 1.000000
vt 0.400817 0.648807
vt 0.197250 1.000000
vt 0.400817 0.530842
vt 0.193749 1.000000
vt 0.276716 0.933643
vt 0.400817 0.644932
vt 0.316450 0.933643
vt 0.276716 0.933643
vt 0.355132 0.933643
vt 0.400817 0.534932
vt 0.379387 0.530842
vt 0.155651 1.000000
vt 0.379387 0.644932
vt 0.238618 0.933643
vt 0.314814 0.933643
vt 0.379387 0.534932
vt 0.379387 0.648807
vt 0.235347 1.000000
vt 0.401802 0.589783
vt 0.091775 1.000000
vt 0.400817 0.589783
vt 0.335844 0.933643
vt 0.355132 0.265421
vt 0.478260 0.117965
vt 0.438100 0.265421
vt 0.355132 0.331777
vt 0.438100 0.331777
vt 0.396616 0.265421
vt 0.438100 0.000000
vt 0.501594 0.117965
vt 0.396616 0.331777
vt 0.438100 0.066356
vt 0.355132 0.000000
vt 0.478260 0.235930
vt 0.396616 0.265421
vt 0.396616 0.331777
vt 0.355132 0.066356
vt 0.501594 0.235930
vt 0.396616 0.000000
vt 0.396616 0.066356
vt 0.501594 0.121813
vt 0.436747 0.000000
vt 0.436747 0.066356
vt 0.356486 0.265421
vt 0.478260 0.121813
vt 0.500026 0.625838
vt 0.438100 0.199066
vt 0.356486 0.331777
vt 0.398155 0.066356
vt 0.478260 0.231555
vt 0.395078 0.265421
vt 0.398155 0.000000
vt 0.501594 0.231555
vt 0.395078 0.331777
vt 0.500026 0.516097
vt 0.478260 0.000000
vt 0.397940 0.265421
vt 0.500849 0.117965
vt 0.397940 0.331777
vt 0.500849 0.235930
vt 0.395292 0.000000
vt 0.395292 0.066356
vt 0.478260 0.199066
vt 0.522616 0.625838
vt 0.438100 0.398132
vt 0.500849 0.121813
vt 0.476692 0.398132
vt 0.522616 0.516097
vt 0.438100 0.000000
vt 0.500849 0.231555
vt 0.436774 0.265421
vt 0.479006 0.117965
vt 0.356459 0.066356
vt 0.439426 0.199066
vt 0.500772 0.625838
vt 0.479006 0.121813
vt 0.500772 0.516097
vt 0.476934 0.000000
vt 0.479006 0.231555
vt 0.436774 0.331777
vt 0.479006 0.235930
vt 0.356459 0.000000
vt 0.501594 0.176891
vt 0.417378 0.000000
vt 0.375854 0.331777
vt 0.500026 0.570760
vt 0.417378 0.066356
vt 0.478260 0.176891
vt 0.375854 0.265421
vt 0.500849 0.176891
vt 0.522616 0.570760
vt 0.457469 0.398132
vt 0.479006 0.176891
vt 0.500772 0.570760
vt 0.438100 0.715163
vt 0.355132 0.530842
vt 0.438100 0.530842
vt 0.396616 0.530842
vt 0.461435 0.715163
vt 0.438100 0.265421
vt 0.396616 0.530842
vt 0.355132 0.265421
vt 0.438100 0.597198
vt 0.461435 0.597198
vt 0.396616 0.265421
vt 0.461435 0.711315
vt 0.436747 0.265421
vt 0.438100 0.398131
vt 0.438100 0.711315
vt 0.356486 0.530842
vt 0.461435 0.601573
vt 0.398155 0.265421
vt 0.395078 0.530842
vt 0.438100 0.601573
vt 0.478260 0.199066
vt 0.460690 0.715163
vt 0.397940 0.530842
vt 0.395292 0.265421
vt 0.460690 0.597198
vt 0.478260 0.398131
vt 0.460690 0.711315
vt 0.438100 0.597198
vt 0.476692 0.597198
vt 0.460690 0.601573
vt 0.438100 0.199066
vt 0.356459 0.265421
vt 0.438846 0.597198
vt 0.439426 0.398131
vt 0.438846 0.711315
vt 0.438846 0.601573
vt 0.476934 0.199066
vt 0.438846 0.715163
vt 0.436774 0.530842
vt 0.461435 0.656237
vt 0.417378 0.265421
vt 0.460690 0.656237
vt 0.457469 0.597198
s 0
usemtl Материал
f 1/1/1 2/4/1 4/10/1 3/7/1
f 3/8/2 4/11/2 8/22/2 7/19/2
f 7/20/3 8/23/3 6/16/3 5/13/3
f 5/14/4 6/17/4 2/5/4 1/2/4
f 3/9/5 7/21/5 5/15/5 1/3/5
f 8/24/6 4/12/6 2/6/6 6/18/6
s 1
f 25/59/7 26/61/1 12/33/8 11/30/9
f 23/54/10 21/51/2 16/41/11 15/38/12
f 40/84/13 34/75/3 14/37/14 13/36/15
f 19/46/16 20/49/17 10/28/18 9/25/19
f 38/81/5 40/83/13 13/35/15 22/52/16
f 16/41/11 21/51/2 56/114/20 53/105/21
f 49/96/6 35/76/22 20/48/17 43/88/23
f 33/74/7 36/78/5 19/47/16 9/26/19
f 45/91/16 43/87/23 20/49/17 19/46/16
f 11/31/9 12/34/8 18/45/2 17/44/10
f 13/36/15 14/37/14 24/58/24 22/53/16
f 44/89/2 18/45/2 54/109/20 66/137/20
f 48/95/5 38/81/5 22/52/16 45/90/16
f 42/86/10 44/89/2 21/51/2 23/54/10
f 42/85/10 23/55/10 32/72/5 46/92/5
f 10/28/18 20/49/17 55/110/25 50/97/26
f 11/32/9 17/43/10 30/68/5 25/60/7
f 31/69/26 37/79/27 64/132/27 61/125/28
f 37/79/27 24/56/24 57/115/26 64/132/27
f 23/55/10 15/39/12 27/62/13 32/72/5
f 15/40/12 16/42/11 28/64/3 27/63/13
f 33/73/7 39/82/1 26/61/1 25/59/7
f 9/27/19 10/29/18 39/82/1 33/73/7
f 46/92/5 32/72/5 38/81/5 48/95/5
f 47/94/23 31/70/26 61/126/28 67/139/23
f 25/60/7 30/68/5 36/78/5 33/74/7
f 47/93/23 29/65/25 35/76/22 49/96/6
f 12/33/8 26/61/1 58/119/27 51/100/29
f 32/72/5 27/62/13 40/83/13 38/81/5
f 27/63/13 28/64/3 34/75/3 40/84/13
f 31/71/26 47/93/23 49/96/6 37/80/27
f 30/68/5 46/92/5 48/95/5 36/78/5
f 35/77/22 29/66/25 60/122/30 63/131/22
f 17/43/10 42/85/10 46/92/5 30/68/5
f 17/44/10 18/45/2 44/89/2 42/86/10
f 36/78/5 48/95/5 45/90/16 19/47/16
f 22/53/16 24/58/24 43/87/23 45/91/16
f 37/80/27 49/96/6 43/88/23 24/57/24
f 63/130/22 65/134/27 50/98/26 55/111/25
f 62/128/22 64/133/27 57/116/26 52/103/25
f 53/106/21 56/113/20 61/127/28 59/120/22
f 66/136/20 54/108/20 60/123/30 67/138/23
f 54/108/20 51/101/29 58/118/27 60/123/30
f 59/120/22 61/127/28 64/133/27 62/128/22
f 60/123/30 58/118/27 65/134/27 63/130/22
f 56/113/20 66/136/20 67/138/23 61/127/28
f 21/51/2 44/89/2 66/137/20 56/114/20
f 39/82/1 10/29/18 50/99/26 65/135/27
f 18/45/2 12/34/8 51/102/29 54/109/20
f 29/67/25 47/94/23 67/139/23 60/124/30
f 26/61/1 39/82/1 65/135/27 58/119/27
f 14/37/14 34/75/3 62/129/22 52/104/25
f 34/75/3 28/64/3 59/121/22 62/129/22
f 24/58/24 14/37/14 52/104/25 57/117/26
f 20/50/17 35/77/22 63/131/22 55/112/25
f 28/64/3 16/42/11 53/107/21 59/121/22
s 0
f 84/174/1 85/176/1 71/148/1 70/145/1
f 82/169/2 80/166/2 75/157/2 74/156/2
f 99/199/3 93/190/3 73/154/3 72/150/3
f 78/161/4 79/165/4 69/143/4 68/140/4
f 97/196/5 99/198/5 72/151/5 81/167/5
f 105/209/4 90/184/4 119/240/4 125/254/4
f 107/211/6 94/192/6 79/163/6 101/203/6
f 92/189/5 95/193/5 78/162/5 68/141/5
f 103/206/4 101/202/4 79/165/4 78/161/4
f 70/146/2 71/149/2 77/160/2 76/159/2
f 72/152/4 73/153/4 83/171/4 81/168/4
f 71/148/1 85/176/1 116/234/1 109/215/1
f 106/210/5 97/196/5 81/167/5 103/205/5
f 100/201/2 102/204/2 80/166/2 82/169/2
f 100/200/5 82/170/5 91/187/5 104/207/5
f 94/191/3 88/180/3 118/237/3 121/245/3
f 70/147/5 76/158/5 89/183/5 84/175/5
f 87/179/3 75/157/3 111/222/3 117/235/3
f 79/164/3 94/191/3 121/245/3 113/225/3
f 82/170/5 74/155/5 86/177/5 91/187/5
f 74/156/3 75/157/3 87/179/3 86/178/3
f 92/188/1 98/197/1 85/176/1 84/174/1
f 68/142/1 69/144/1 98/197/1 92/188/1
f 104/207/5 91/187/5 97/196/5 106/210/5
f 83/171/4 73/153/4 110/218/4 115/230/4
f 84/175/5 89/183/5 95/193/5 92/189/5
f 105/208/6 88/181/6 94/192/6 107/211/6
f 93/190/3 87/179/3 117/235/3 120/243/3
f 91/187/5 86/177/5 99/198/5 97/196/5
f 86/178/3 87/179/3 93/190/3 99/199/3
f 90/185/6 105/208/6 107/211/6 96/194/6
f 89/183/5 104/207/5 106/210/5 95/193/5
f 73/154/3 93/190/3 120/243/3 110/219/3
f 76/158/5 100/200/5 104/207/5 89/183/5
f 76/159/2 77/160/2 102/204/2 100/201/2
f 95/193/5 106/210/5 103/205/5 78/162/5
f 81/168/4 83/171/4 101/202/4 103/206/4
f 96/194/6 107/211/6 101/203/6 83/172/6
f 121/246/6 123/249/6 108/212/6 113/226/6
f 120/244/6 122/247/6 115/231/6 110/220/6
f 111/221/6 114/228/6 119/241/6 117/236/6
f 124/251/6 112/223/6 118/238/6 125/253/6
f 112/223/6 109/216/6 116/233/6 118/238/6
f 117/236/6 119/241/6 122/247/6 120/244/6
f 118/238/6 116/233/6 123/249/6 121/246/6
f 114/228/6 124/251/6 125/253/6 119/241/6
f 102/204/2 77/160/2 112/224/2 124/252/2
f 96/195/1 83/173/1 115/232/1 122/248/1
f 90/186/1 96/195/1 122/248/1 119/242/1
f 69/143/4 79/165/4 113/227/4 108/213/4
f 75/157/2 80/166/2 114/229/2 111/222/2
f 80/166/2 102/204/2 124/252/2 114/229/2
f 98/197/1 69/144/1 108/214/1 123/250/1
f 77/160/2 71/149/2 109/217/2 112/224/2
f 88/182/4 105/209/4 125/254/4 118/239/4
f 85/176/1 98/197/1 123/250/1 116/234/1
l 37 41
